<?xml version="1.0" standalone="no"?>
<!DOCTYPE svg PUBLIC "-//W3C//DTD SVG 20010904//EN"
 "http://www.w3.org/TR/2001/REC-SVG-20010904/DTD/svg10.dtd">
<svg version="1.0" xmlns="http://www.w3.org/2000/svg"
 width="110.000000pt" height="110.000000pt" viewBox="0 0 110.000000 110.000000"
 preserveAspectRatio="xMidYMid meet">
<metadata>
Created by potrace 1.14, written by Peter Selinger 2001-2017
</metadata>
<g transform="translate(0.000000,110.000000) scale(0.100000,-0.100000)"
fill="#000000" stroke="none">
<path d="M118 1087 l-38 -9 0 -129 c0 -144 -6 -134 84 -142 117 -11 185 65
116 128 -18 16 -18 17 1 36 19 19 20 42 4 81 -14 35 -98 53 -167 35z m87 -97
c0 -8 -8 -16 -17 -18 -13 -2 -18 3 -18 18 0 15 5 20 18 18 9 -2 17 -10 17 -18z
m-5 -75 c14 -16 6 -35 -16 -35 -8 0 -14 10 -14 25 0 28 12 32 30 10z"/>
<path d="M382 1079 c-94 -47 -98 -217 -5 -262 29 -14 52 -15 97 -3 20 5 26 13
27 34 0 15 2 35 4 45 4 20 3 20 -29 6 -26 -12 -76 -5 -76 10 0 5 30 13 66 16
l66 8 -4 54 c-5 61 -25 88 -75 102 -24 7 -40 5 -71 -10z m68 -89 c0 -15 -7
-20 -25 -20 -27 0 -32 9 -13 28 18 18 38 14 38 -8z"/>
<path d="M590 1073 c-32 -21 -43 -41 -48 -77 -4 -36 31 -76 67 -76 14 0 33 -4
41 -10 25 -15 -18 -25 -62 -13 -27 7 -38 7 -39 -1 0 -6 -3 -23 -5 -37 -4 -23
0 -29 27 -38 77 -27 150 -4 169 53 21 65 -8 106 -78 108 -19 1 -31 6 -29 12 2
6 24 10 48 9 44 -2 44 -2 47 34 1 21 -3 40 -10 45 -23 14 -103 9 -128 -9z"/>
<path d="M750 1048 c0 -21 0 -41 0 -45 0 -5 8 -8 18 -9 9 -1 22 -2 27 -3 6 0
11 -37 13 -82 1 -45 4 -85 7 -89 5 -8 60 -4 74 5 5 2 9 19 9 37 1 146 -1 138
32 138 29 0 30 2 30 43 l0 43 -105 0 -105 0 0 -38z"/>
<path d="M840 693 c-14 -3 -28 -8 -32 -12 -4 -3 -9 -65 -10 -136 l-3 -129 40
-1 c38 0 40 1 43 35 5 56 19 58 42 6 15 -36 24 -46 36 -42 9 3 21 6 27 6 33 1
38 17 17 53 -21 36 -21 36 -2 57 40 43 33 114 -15 145 -25 17 -97 26 -143 18z
m89 -77 c16 -19 -3 -56 -28 -56 -17 0 -19 10 -12 63 2 12 28 8 40 -7z"/>
<path d="M82 682 c-7 -2 -12 -22 -12 -47 0 -41 1 -42 30 -40 28 2 30 1 31 -36
1 -38 5 -106 8 -133 1 -9 12 -12 38 -9 21 2 39 5 41 7 1 2 4 37 6 77 2 41 5
79 5 86 1 6 13 13 29 15 24 3 27 7 27 43 l0 40 -95 1 c-53 0 -101 -1 -108 -4z"/>
<path d="M362 675 c-63 -27 -92 -123 -56 -185 35 -59 111 -77 171 -40 32 19
67 72 56 84 -4 3 -1 6 5 6 7 0 12 -13 12 -29 0 -18 11 -41 30 -61 25 -27 36
-32 65 -28 20 2 36 -1 39 -7 2 -7 19 -9 40 -7 34 4 36 7 37 41 1 20 3 45 4 56
2 11 6 57 10 101 l7 82 -43 -2 c-43 -2 -44 -3 -46 -42 -5 -75 -14 -121 -28
-140 -28 -39 -40 26 -20 112 9 39 9 54 1 55 -73 8 -84 5 -90 -24 -3 -16 -6
-45 -6 -63 0 -19 -5 -34 -11 -34 -6 0 -8 7 -5 16 8 22 -21 79 -49 98 -33 22
-85 26 -123 11z m79 -99 c13 -27 -2 -66 -26 -66 -24 0 -46 30 -39 54 13 41 49
48 65 12z"/>
<path d="M331 290 c-4 -3 -9 -67 -10 -142 l-2 -137 23 5 c27 6 206 8 228 3 9
-3 16 5 18 19 2 15 10 22 25 22 13 0 26 -9 32 -22 8 -18 16 -22 40 -19 17 2
41 3 55 3 60 -3 92 -2 100 3 6 4 10 43 10 89 0 83 17 135 35 106 9 -14 9 -84
0 -150 l-6 -45 54 -3 c64 -3 64 -4 61 114 -2 77 -18 133 -44 149 -22 14 -53
13 -76 -2 -21 -13 -24 -13 -24 0 0 11 -9 13 -42 10 -24 -3 -44 -6 -45 -7 -2
-2 -12 -152 -13 -206 l-2 -45 -13 40 c-8 22 -25 79 -40 128 l-26 87 -42 0
c-23 0 -48 -4 -55 -8 -13 -9 -56 -133 -68 -197 -9 -48 -19 -51 -19 -7 0 35 -1
36 -35 37 l-35 0 3 65 c1 36 5 75 7 88 3 13 0 22 -7 23 -51 4 -80 4 -87 -1z
m299 -157 c0 -7 -6 -13 -14 -13 -9 0 -12 8 -8 26 3 19 7 22 13 12 5 -7 9 -19
9 -25z"/>
<path d="M101 279 c-20 -8 -21 -15 -21 -138 0 -142 0 -142 63 -133 24 4 27 8
27 42 0 36 2 38 38 44 113 18 137 140 36 182 -36 15 -105 16 -143 3z m117 -93
c4 -17 -12 -35 -29 -36 -11 0 -19 29 -12 45 8 21 37 15 41 -9z"/>
</g>
</svg>
